Coordinates
version=1
nRows=8
nColumns=63
inDegrees=yes

Units are S.I. units (second, meters, Newtons, ...)
If the header above contains a line with 'inDegrees', this indicates whether rotational values are in degrees (yes) or radians (no).

endheader
time	pelvis_tilt	pelvis_list	pelvis_rotation	pelvis_tx	pelvis_ty	pelvis_tz	hip_flexion_r	hip_adduction_r	hip_rotation_r	knee_angle_r	knee_angle_r_beta	ankle_angle_r	subtalar_angle_r	mtp_angle_r	hip_flexion_l	hip_adduction_l	hip_rotation_l	knee_angle_l	knee_angle_l_beta	ankle_angle_l	subtalar_angle_l	mtp_angle_l	L5_S1_Flex_Ext	L5_S1_Lat_Bending	L5_S1_axial_rotation	L4_L5_Flex_Ext	L4_L5_Lat_Bending	L4_L5_axial_rotation	L3_L4_Flex_Ext	L3_L4_Lat_Bending	L3_L4_axial_rotation	L2_L3_Flex_Ext	L2_L3_Lat_Bending	L2_L3_axial_rotation	L1_L2_Flex_Ext	L1_L2_Lat_Bending	L1_L2_axial_rotation	L1_T12_Flex_Ext	L1_T12_Lat_Bending	L1_T12_axial_rotation	Abs_r3	Abs_r2	Abs_r1	Abs_t1	Abs_t2	neck_flexion	neck_bending	neck_rotation	arm_flex_r	arm_add_r	arm_rot_r	elbow_flex_r	pro_sup_r	wrist_flex_r	wrist_dev_r	arm_flex_l	arm_add_l	arm_rot_l	elbow_flex_l	pro_sup_l	wrist_flex_l	wrist_dev_l
      7.57500000	     -4.83922117	      6.18012929	    100.73228197	      0.06418551	      1.06561779	      0.35834649	    -19.32555921	     -4.80184150	    -12.17568021	     10.87714499	      0.18984199	     32.32124229	      8.89382099	      0.00000000	    -15.97510529	     -2.02728984	     -6.25071404	     12.61155321	      0.22011313	     44.65588121	     15.63196187	      0.00000000	      0.17463353	     -0.50683569	      2.12767367	      0.32431193	     -0.67409147	      2.26065328	      0.28690543	     -1.23232031	      2.26065328	      0.19958866	     -1.23232031	      1.86171447	      0.16216470	     -1.03353935	      1.72873486	      0.09978560	     -0.78508849	      1.59575526	      1.24738984	     -5.73342673	     11.83348268	      0.00000000	      0.00000000	     14.75958029	    -10.62351563	     -1.74223589	    268.49565742	    -64.37921089	    162.83246394	     70.04620409	     66.71899374	     21.40259201	     11.56874934	    -15.21701797	    -85.10087275	   -120.84393477	     72.99288451	     71.92410773	     -3.05527481	     23.55885493
      7.60000000	     -4.73741954	      4.15462189	    100.23874139	      0.06574906	      1.06872680	      0.36786049	    -16.66686712	     -5.22500732	    -11.48539894	     10.27493785	      0.17933150	     31.18041680	      8.71261902	      0.00000000	    -12.73112729	     -1.51878988	     -5.40163566	     13.01352821	      0.22712891	     43.79015428	     15.99999918	      0.00000000	      0.17639001	     -0.51706530	      2.27392882	      0.32757389	     -0.68769684	      2.41604937	      0.28979115	     -1.25719256	      2.41604937	      0.20159614	     -1.25719256	      1.98968772	      0.16379576	     -1.05439955	      1.84756716	      0.10078925	     -0.80093414	      1.70544661	      1.25993621	     -5.84914605	     12.64690991	      0.00000000	      0.00000000	     15.44709460	    -12.50709384	     -2.31174741	    258.35394740	    -60.87732873	    162.23525183	     50.97644214	     59.18944427	     20.24650932	     17.09677800	    -12.87176758	    -91.94625974	   -121.69259053	     52.50148408	     83.11327571	     15.54340535	     30.75589762
      7.62500000	     -4.71890023	      2.02545721	     99.80108379	      0.06715048	      1.07182994	      0.37905453	    -13.76845472	     -5.77804476	    -11.09715293	      9.73767810	      0.16995454	     30.18253133	      9.07012391	      0.00000000	     -9.38656278	     -0.95499682	     -4.50216062	     13.22143961	      0.23075765	     42.72805685	     16.50726117	      0.00000000	      0.17385006	     -0.55081086	      1.64594508	      0.32285695	     -0.73257845	      1.74881665	      0.28561827	     -1.33924153	      1.74881665	      0.19869324	     -1.33924153	      1.44020195	      0.16143717	     -1.12321351	      1.33733038	      0.09933793	     -0.85320603	      1.23445881	      1.24179362	     -6.23088265	      9.15425278	      0.00000000	      0.00000000	     16.65905456	    -12.41773679	     -1.22230315	    248.64514893	    -62.55109641	    170.99439518	     37.33257137	     46.87848346	     10.19198229	     16.30945318	     52.61646730	   -105.91171913	    -22.40557080	     31.93667581	     58.66904747	      9.76298421	     24.84638504
      7.65000000	     -4.26846865	      0.16001202	     99.12726626	      0.06746774	      1.07597075	      0.39353771	    -10.70969119	     -6.01950054	    -10.66033138	      9.32228979	      0.16270465	     28.92358564	     10.01183466	      0.00000000	     -6.30293502	     -0.81335940	     -3.89518466	     13.14036320	      0.22934260	     41.20635327	     16.68619549	      0.00000000	      0.14133560	     -0.48817942	      1.53452484	      0.26247434	     -0.64927862	      1.63043264	      0.23220025	     -1.18695943	      1.63043264	      0.16153245	     -1.18695943	      1.34270923	      0.13124423	     -0.99549546	      1.24680143	      0.08075916	     -0.75618991	      1.15089363	      1.00954603	     -5.52238318	      8.53456679	      0.00000000	      0.00000000	     15.34651423	    -12.94113977	     -2.71456513	    241.43067113	    -62.13598546	    188.29735041	     30.69868422	     26.02550386	      2.66307353	     13.04297723	     47.10582371	   -111.26049596	     17.03153259	     23.04404823	     18.17503769	      5.13706037	     15.37913410
      7.67500000	     -3.65573805	     -2.16032858	     98.46868828	      0.06727066	      1.07808625	      0.40743703	     -7.21117898	     -6.06605221	     -9.61377788	      8.79122539	      0.15343583	     27.86341457	     10.33366542	      0.00000000	     -3.01068109	     -0.90250683	     -3.52076762	     12.85633720	      0.22438541	     39.53644126	     16.55293464	      0.00000000	      0.14278727	     -0.39458150	      1.44579952	      0.26517025	     -0.52479339	      1.53616199	      0.23458521	     -0.95938546	      1.53616199	      0.16319158	     -0.95938546	      1.26507458	      0.13259226	     -0.80463059	      1.17471211	      0.08158865	     -0.61120674	      1.08434964	      1.01991522	     -4.46358483	      8.04110319	      0.00000000	      0.00000000	     14.67165081	    -12.49529601	     -3.64014205	    239.65566851	    -64.27995251	    197.34024254	     31.68632882	     19.55105004	     -0.92364456	     12.24055175	     52.72418590	   -110.12672896	     36.31815484	     22.73116105	     10.50784305	      5.35427793	     12.20082480
      7.70000000	     -2.95585167	     -5.12022057	     98.13247594	      0.06651620	      1.07707065	      0.42018726	     -3.12850620	     -5.99046774	     -8.34527083	      8.29688819	      0.14480802	     27.54047957	     10.07371672	      0.00000000	      0.80078070	     -1.17312722	     -3.15835108	     12.72158574	      0.22203356	     37.78227792	     16.03913503	      0.00000000	      0.18732141	     -0.28611035	      1.19634526	      0.34787459	     -0.38052676	      1.27111684	      0.30775034	     -0.69564870	      1.27111684	      0.21408964	     -0.69564870	      1.04680210	      0.17394666	     -0.58343622	      0.97203052	      0.10703545	     -0.44318493	      0.89725894	      1.33801809	     -3.23653749	      6.65371342	      0.00000000	      0.00000000	     15.35635199	    -11.12134438	     -3.29365944	    244.05725852	    -68.77604475	    199.71430337	     37.68812028	     28.19140209	     -3.12519939	     13.84641751	     69.12592043	   -109.60657202	     54.00910839	     25.34439712	     16.62454257	      8.86972704	      7.90976925
      7.72500000	     -1.92833820	     -8.36029266	     98.14220352	      0.06442083	      1.07437898	      0.43321681	      1.42766832	     -5.72518404	     -8.06654160	      8.19431585	      0.14301779	     27.84842367	     10.68401804	      0.00000000	      5.01921640	     -1.77293297	     -2.62212083	     12.95238070	      0.22606169	     35.94346341	     15.04188671	      0.00000000	      0.24347830	     -0.12342726	      0.76214902	      0.45216356	     -0.16415826	      0.80978333	      0.40001050	     -0.30010105	      0.80978333	      0.27827135	     -0.30010105	      0.66688039	      0.22609395	     -0.25169288	      0.61924608	      0.13912350	     -0.19118883	      0.57161176	      1.73914117	     -1.39623390	      4.23884419	      0.00000000	      0.00000000	     16.20557316	     -9.78703631	     -1.90305444	    256.33629697	    -76.04943869	    204.19365693	     45.04394379	     45.34290926	     -2.56490762	     18.72836902	     93.65168432	   -111.94272292	     71.19070718	     30.27282325	     33.24699209	     12.09498460	      1.60857442
      7.75000000	     -0.74460011	    -11.60591702	     98.18430877	      0.06167855	      1.07057987	      0.44727628	      6.32163544	     -5.44332984	     -8.36476825	      8.71070502	      0.15203048	     28.55222282	     11.82001315	      0.00000000	      9.42455168	     -2.49059253	     -1.99103870	     13.57217000	      0.23687905	     34.22691197	     13.56695063	      0.00000000	      0.27921968	      0.06156357	      0.29446651	      0.51853887	      0.08187955	      0.31287067	      0.45873001	      0.14968566	      0.31287067	      0.31912017	      0.14968566	      0.25765820	      0.25928339	      0.12554043	      0.23925404	      0.15954613	      0.09536197	      0.22084988	      1.99443825	      0.69641942	      1.63773441	      0.00000000	      0.00000000	     16.67259875	     -8.70514285	     -0.16383911	    298.52378015	    -83.72543153	    239.46120132	     49.56669867	     61.81002769	      1.96153074	     25.34835261	    111.62257340	   -116.81323554	     86.80431368	     35.07321800	     49.05806855	      9.57924127	     -7.14052784
